<?xml version="1.0" encoding="utf-8"?>
<svg version="1.1" id="Layer_1" xmlns="http://www.w3.org/2000/svg" xmlns:xlink="http://www.w3.org/1999/xlink" x="0px" y="0px"
	 viewBox="0 0 500 500" fill="#c3c3c3" stroke="#262626" stroke-width="3" xml:space="preserve">
<g>
	<circle cx="050" cy="50" r="21"/>
	<circle cx="150" cy="50" r="5"/>
	<circle cx="250" cy="50" r="5"/>
	<circle cx="350" cy="50" r="5"/>
	<circle cx="450" cy="50" r="22"/>

	<circle cx="050" cy="150" r="21"/>
	<circle cx="150" cy="150" r="21"/>
	<circle cx="250" cy="150" r="5"/>
	<circle cx="350" cy="150" r="21"/>
	<circle cx="450" cy="150" r="25"/>

	<circle cx="050" cy="250" r="24"/>
	<circle cx="150" cy="250" r="5"/>
	<circle cx="250" cy="250" r="20"/>
	<circle cx="350" cy="250" r="5"/>
	<circle cx="450" cy="250" r="22"/>

	<circle cx="050" cy="350" r="24"/>
	<circle cx="150" cy="350" r="5"/>
	<circle cx="250" cy="350" r="5"/>
	<circle cx="350" cy="350" r="5"/>
	<circle cx="450" cy="350" r="24"/>

	<circle cx="050" cy="450" r="20"/>
	<circle cx="150" cy="450" r="5"/>
	<circle cx="250" cy="450" r="5"/>
	<circle cx="350" cy="450" r="5"/>
	<circle cx="450" cy="450" r="23"/>
</g>
</svg>
